<svg xmlns="http://www.w3.org/2000/svg" width="1080" height="630" viewBox="0 0 1080 630">
<rect x="0" y="0" width="1080" height="630" fill="#ffffff"/>
<text x="36" y="44" font-family="Noto Sans SC" font-size="25" font-weight="700" fill="#1f2937">失败处理：先核验，再决定恢复或重试</text>
<text x="36" y="76" font-family="Noto Sans SC" font-size="16" fill="#4b5563">成功方向保留；恢复只取回原结果；新生成需要明确选择</text>
<rect x="40" y="125" width="240" height="90" rx="14" fill="#ffffff" stroke="#374151" stroke-width="1.5"/>
<text x="160.0" y="164.0" text-anchor="middle" font-family="Noto Sans SC" font-size="18" fill="#1f2937">未完整交付</text>
<text x="160.0" y="189.0" text-anchor="middle" font-family="Noto Sans SC" font-size="18" fill="#1f2937">保留成功成品与阶段</text>
<polygon points="507.5,120 650,170.0 507.5,220 365,170.0" fill="#f4f5f7" stroke="#374151" stroke-width="1.5"/>
<text x="507.5" y="176.0" text-anchor="middle" font-family="Noto Sans SC" font-size="18" fill="#1f2937">原结果是否可取回</text>
<rect x="770" y="125" width="255" height="90" rx="14" fill="#f4f5f7" stroke="#374151" stroke-width="1.5"/>
<text x="897.5" y="164.0" text-anchor="middle" font-family="Noto Sans SC" font-size="18" fill="#1f2937">恢复下载与补存储</text>
<text x="897.5" y="189.0" text-anchor="middle" font-family="Noto Sans SC" font-size="18" fill="#1f2937">新增生成调用=0</text>
<rect x="365" y="330" width="285" height="85" rx="14" fill="#ffffff" stroke="#374151" stroke-width="1.5"/>
<text x="507.5" y="366.5" text-anchor="middle" font-family="Noto Sans SC" font-size="18" fill="#1f2937">状态未知：核验原请求</text>
<text x="507.5" y="391.5" text-anchor="middle" font-family="Noto Sans SC" font-size="18" fill="#1f2937">不自动追加付费调用</text>
<rect x="40" y="470" width="280" height="95" rx="14" fill="#ffffff" stroke="#374151" stroke-width="1.5"/>
<text x="180.0" y="511.5" text-anchor="middle" font-family="Noto Sans SC" font-size="18" fill="#1f2937">结果缺失或已失效</text>
<text x="180.0" y="536.5" text-anchor="middle" font-family="Noto Sans SC" font-size="18" fill="#1f2937">说明新调用与重试范围</text>
<rect x="420" y="470" width="285" height="95" rx="14" fill="#ffffff" stroke="#374151" stroke-width="1.5"/>
<text x="562.5" y="511.5" text-anchor="middle" font-family="Noto Sans SC" font-size="18" fill="#1f2937">用户明确选择</text>
<text x="562.5" y="536.5" text-anchor="middle" font-family="Noto Sans SC" font-size="18" fill="#1f2937">创建关联新执行</text>
<rect x="790" y="470" width="235" height="95" rx="14" fill="#ffffff" stroke="#374151" stroke-width="1.5"/>
<text x="907.5" y="511.5" text-anchor="middle" font-family="Noto Sans SC" font-size="18" fill="#1f2937">按新执行计用量</text>
<text x="907.5" y="536.5" text-anchor="middle" font-family="Noto Sans SC" font-size="18" fill="#1f2937">记录实际交付</text>
<polyline points="280,170 365,170" fill="none" stroke="#4b5563" stroke-width="1.8"/>
<polygon points="365,170 357,166 357,174" fill="#4b5563"/>
<polyline points="650,170 770,170" fill="none" stroke="#4b5563" stroke-width="1.8"/>
<polygon points="770,170 762,166 762,174" fill="#4b5563"/>
<text x="683" y="156" font-family="Noto Sans SC" font-size="15" fill="#374151">有效</text>
<polyline points="507,220 507,330" fill="none" stroke="#4b5563" stroke-width="1.8"/>
<polygon points="507,330 503,322 511,322" fill="#4b5563"/>
<text x="524" y="276" font-family="Noto Sans SC" font-size="15" fill="#374151">未知</text>
<polyline points="650,372 714,372 714,275 507,275 507,220" fill="none" stroke="#4b5563" stroke-width="1.8"/>
<polygon points="507,220 503,228 511,228" fill="#4b5563"/>
<polyline points="365,170 320,170 320,300 180,300 180,470" fill="none" stroke="#4b5563" stroke-width="1.8"/>
<polygon points="180,470 176,462 184,462" fill="#4b5563"/>
<text x="71" y="286" font-family="Noto Sans SC" font-size="15" fill="#374151">没有／过期</text>
<polyline points="320,517 420,517" fill="none" stroke="#4b5563" stroke-width="1.8"/>
<polygon points="420,517 412,513 412,521" fill="#4b5563"/>
<polyline points="705,517 790,517" fill="none" stroke="#4b5563" stroke-width="1.8"/>
<polygon points="790,517 782,513 782,521" fill="#4b5563"/>
</svg>